<?xml version="1.0" standalone="no"?>
<!DOCTYPE svg PUBLIC "-//W3C//DTD SVG 20010904//EN"
 "http://www.w3.org/TR/2001/REC-SVG-20010904/DTD/svg10.dtd">
<svg version="1.0" xmlns="http://www.w3.org/2000/svg"
 width="260.000000pt" height="260.000000pt" viewBox="0 0 260.000000 260.000000"
 preserveAspectRatio="xMidYMid meet">
<metadata>
Created by potrace 1.11, written by Peter Selinger 2001-2013
</metadata>
<g transform="translate(0.000000,260.000000) scale(0.100000,-0.100000)"
fill="#000000" stroke="none">
<path d="M1323 2409 c-31 -11 -71 -65 -105 -144 -24 -54 -32 -89 -36 -156 -5
-97 11 -256 32 -316 12 -33 12 -45 2 -65 -7 -13 -16 -37 -20 -51 -5 -20 -15
-29 -35 -33 -18 -4 -61 -37 -113 -88 -68 -66 -92 -97 -128 -168 l-43 -88 -5
-135 c-4 -119 -2 -146 18 -221 20 -74 31 -94 84 -158 67 -81 105 -115 153
-140 36 -18 142 -36 219 -36 47 0 55 -3 87 -39 32 -36 36 -45 42 -122 9 -115
-5 -154 -69 -197 -45 -30 -55 -33 -114 -30 -72 3 -91 20 -47 40 95 43 57 218
-47 218 -50 0 -71 -12 -97 -54 -64 -102 19 -229 164 -252 83 -13 203 46 232
113 17 42 19 200 2 250 -18 55 -6 76 58 106 111 51 182 148 212 289 11 51 10
60 -7 95 -11 21 -31 67 -46 102 -57 141 -177 229 -297 218 -38 -3 -61 -1 -68
6 -5 7 -14 45 -20 86 -13 82 -8 96 40 106 32 7 45 36 36 82 -3 17 5 46 23 82
40 82 52 143 51 271 -1 139 -25 257 -74 363 -28 61 -51 79 -84 66z m81 -132
c18 -25 21 -42 20 -135 -1 -93 -6 -120 -34 -205 -33 -100 -82 -181 -103 -174
-22 7 -39 92 -44 220 -7 157 10 238 63 293 39 42 67 42 98 1z m-185 -826 c6
-10 13 -47 17 -83 6 -61 5 -65 -19 -81 -63 -41 -117 -161 -117 -257 0 -83 54
-190 114 -225 70 -41 91 -25 37 28 -38 37 -54 94 -39 138 17 51 38 79 59 79
20 0 20 -1 38 -118 23 -154 13 -194 -56 -208 -67 -13 -173 46 -173 97 0 15
-16 50 -35 79 -19 29 -38 64 -41 79 -3 14 -13 40 -21 57 -35 69 1 213 78 310
31 39 128 124 141 124 4 0 12 -8 17 -19z m321 -321 c53 -15 107 -75 115 -130
12 -87 9 -108 -20 -150 -50 -72 -120 -90 -156 -40 -18 23 -59 174 -74 267 -5
34 -3 43 12 52 23 13 78 14 123 1z"/>
</g>
</svg>
